<svg xmlns="http://www.w3.org/2000/svg" height="24" width="24" fill="white"><path d="M21.3 10.5c-.5 0-.8.3-.8.8H19a7 7 0 0 0-1.6-3.7l1.1-1c.3.2.8.2 1.1 0s.3-.9 0-1.1l-1-1.1a.8.8 0 0 0-1.1 0c-.3.3-.3.8 0 1l-1.1 1.1A7 7 0 0 0 12.7 5V3.5c.5 0 .8-.3.8-.8 0-.4-.3-.7-.8-.7h-1.4c-.5 0-.8.3-.8.8 0 .4.3.7.7.7v1.6a7 7 0 0 0-3.6 1.5l-1-1.1a1 1 0 0 0 0-1.1.8.8 0 0 0-1.1 0l-1.1 1c-.3.3-.3.8 0 1.1s.8.3 1 0l1.1 1.1c-.8 1-1.3 2.3-1.5 3.6H3.5c0-.4-.3-.7-.8-.7-.4 0-.7.3-.7.8v1.4c0 .5.3.8.8.8.4 0 .7-.3.7-.8H5a7 7 0 0 0 1.5 3.7l-1 1a.7.7 0 0 0-1.1 0c-.3.4-.3.9 0 1.1l1 1.1c.4.3.8.3 1.1 0s.3-.8 0-1l1.1-1.2a7 7 0 0 0 3.6 1.5v1.6c-.4 0-.7.3-.7.8 0 .4.3.7.7.7h1.5c.5 0 .8-.3.8-.8 0-.4-.3-.7-.8-.7V19a7 7 0 0 0 3.7-1.5l1 1c-.2.3-.2.8 0 1 .4.4.8.4 1.1 0l1-1c.4-.3.4-.7 0-1a.8.8 0 0 0-1 0l-1-1.1a7 7 0 0 0 1.4-3.7h1.6c0 .5.3.8.7.8s.8-.3.8-.8v-1.5c0-.4-.3-.7-.8-.7zM13.7 8a1 1 0 1 1-1 1c0-.5.5-1 1-1zM12 13a1 1 0 1 1 0-2c.5 0 1 .5 1 1 0 .6-.4 1-1 1zm-1.8-5a1 1 0 1 1-1 1c0-.5.5-1 1-1zm-1.7 5a1 1 0 1 1 0-2c.5 0 1 .5 1 1 0 .6-.4 1-1 1zm1.8 3a1 1 0 0 1-1-1c0-.6.4-1 1-1a1 1 0 1 1 0 2zm3.4 0a1 1 0 1 1 0-2c.5 0 1 .5 1 1 0 .6-.4 1-1 1zm.8-4a1 1 0 0 1 1-1c.5 0 1 .5 1 1a1 1 0 0 1-2 0z"/></svg>
